<?xml version="1.0" standalone="no"?>
<!DOCTYPE svg PUBLIC "-//W3C//DTD SVG 1.1//EN" "http://www.w3.org/Graphics/SVG/1.1/DTD/svg11.dtd">
<svg width="1416.80944824mm" height="1414.01342773mm" preserveAspectRatio="xMinYMin meet" viewBox="0 0 1416.80944824 1414.01342773" version="1.1" xmlns="http://www.w3.org/2000/svg" >
	<g>
		<path d="M962.480834961 667.349853516 L957.829223633 642.965393066 L947.8359375 612.20916748 L937.266357422 589.747619629 L981.995300293 565.157653809 L953.503601074 520.26184082 L940.838623047 528.299255371 L960.77142334 559.708312988 L930.040039062 576.603027344 L916.738586426 555.643310547 L896.124938965 530.725708008 L878.028930664 513.73236084 L905.473754883 480.557220459 L937.407958984 441.955383301 L964.251281738 409.507415771 L1000.54150391 443.586242676 L1010.80969238 432.651702881 L973.831542969 397.926849365 L1001.27642822 364.751708984 L1033.21069336 326.149841309 L1060.05395508 293.701873779 L1104.29174805 335.243988037 L1142.97412109 382.002929688 L1102.8371582 411.164245605 L1111.65380859 423.299499512 L1158.25231934 389.443725586 L1192.32177734 364.690795898 L1228.20996094 421.241455078 L1263.12658691 495.443237305 L1323.68164062 471.467895508 L1285.2824707 389.865539551 L1240.98522949 320.064208984 L1188.28881836 256.365356445 L1128.02453613 199.773376465 L1055.06298828 146.76373291 L1027.71289062 189.860412598 L961.207763672 153.29876709 L953.981445312 166.44342041 L1026.24499512 206.170623779 L1092.95947266 254.64151001 L1101.77624512 242.506256104 L1040.37792969 197.897766113 L1059.16894531 168.287902832 L1118.44433594 211.353942871 L1177.33276367 266.653869629 L1228.82592773 328.8984375 L1272.11193848 397.106140137 L1303.30810547 463.401428223 L1270.70153809 476.311218262 L1241.38049316 414.000854492 L1196.42773438 343.166625977 L1155.13342285 373.168731689 L1120.03808594 330.745758057 L1156.89172363 296.137817383 L1146.62353516 285.203277588 L1109.76977539 319.811218262 L1058.67810059 271.832794189 L1026.14233398 311.161804199 L974.530029297 273.663299561 L943.406188965 322.706573486 L916.561889648 365.006439209 L893.491394043 401.359741211 L854.125976562 379.718383789 L826.395629883 438.6484375 L872.164855957 463.810302734 L879.391174316 450.665710449 L845.965515137 432.289794922 L860.897277832 400.558227539 L898.608642578 421.290283203 L929.226806641 373.04385376 L956.071105957 330.743988037 L978.635986328 295.187469482 L1016.56207275 322.742340088 L989.71875 355.190368652 L957.784484863 393.792205811 L925.850280762 432.394042969 L893.91607666 470.995849609 L866.471191406 504.17098999 L846.388061523 489.579711914 L818.049194336 474.000305176 L787.981201172 462.09552002 L763.936889648 455.92199707 L773.41015625 406.261627197 L758.675842285 403.450897217 L749.202575684 453.111297607 L724.574157715 450.000030518 L692.235229492 450.000030518 L667.606811523 453.111328125 L658.042358398 402.972869873 L620.625610352 412.579864502 L607.320617676 371.631286621 L594.307250977 331.580230713 L642.083435059 319.313354492 L631.376098633 263.183685303 L620.491943359 206.12701416 L558.700073242 221.992431641 L545.395080566 181.043884277 L529.913696289 133.397033691 L516.90032959 93.3459472656 L587.866638184 75.1248779297 L660.557373047 65.9418334961 L663.643859863 115.0 L738.135681152 115.0 L735.491455078 157.029052734 L732.34576416 207.029083252 L729.200012207 257.029083252 L725.583374023 314.514282227 L740.553771973 315.456115723 L743.668945312 265.941864014 L798.84777832 272.912536621 L810.960449219 209.415679932 L796.226135254 206.604949951 L786.752929688 256.265380859 L744.612670898 250.941864014 L747.316162109 207.970916748 L750.461853027 157.970947266 L753.106079102 115.941833496 L827.010559082 125.278076172 L839.123291016 61.78125 L824.388916016 58.9705200195 L814.915710449 108.630981445 L746.594238281 100.0 L677.729797363 100.0 L674.524780273 49.0581665039 L585.050354004 60.3614501953 L504.977203369 80.9207763672 L421.57723999 113.941040039 L427.099090576 127.887695312 L502.634521484 97.9812011719 L515.647827148 138.032287598 L531.129272461 185.679138184 L546.610595703 233.325958252 L564.409606934 288.105743408 L578.675476074 283.470489502 L563.344482422 236.286499023 L608.750732422 224.628173828 L616.641784668 265.994415283 L624.709655762 308.287658691 L575.10534668 321.023895264 L593.054748535 376.266540527 L610.712524414 430.611663818 L646.301147461 421.474029541 L652.872497559 455.922058105 L628.82824707 462.095550537 L598.760253906 474.000305176 L577.006652832 485.959472656 L553.936157227 449.606170654 L522.81237793 400.562927246 L486.469726562 426.967407227 L453.933959961 387.638397217 L411.122955322 427.840637207 L383.268463135 461.510925293 L348.435516357 436.203338623 L307.904693604 406.755950928 L267.37387085 377.308563232 L226.843048096 347.861175537 L179.850891113 313.719329834 L131.526977539 389.865570068 L96.3274536133 464.668395996 L68.6091308594 549.976928711 L82.875 554.612182617 L110.301696777 470.201171875 L141.49786377 403.905792236 L178.401062012 424.193481445 L222.303039551 448.328796387 L272.777313232 476.077270508 L280.003631592 462.932647705 L229.52935791 435.184204102 L185.627380371 411.04888916 L148.724182129 390.761199951 L183.956848145 335.243499756 L218.026275635 359.996429443 L258.557098389 389.443817139 L299.087921143 418.891204834 L339.618743896 448.338592529 L380.14956665 477.785949707 L426.748016357 511.641693115 L435.564788818 499.506439209 L395.427703857 470.345153809 L422.07913208 438.129150391 L452.558044434 409.507476807 L479.401367188 441.955444336 L516.116271973 486.336120605 L527.673950195 476.774780273 L496.049987793 438.547943115 L518.706420898 422.087097168 L541.271240234 457.643554688 L564.34173584 493.996856689 L544.258544922 508.588134766 L520.684509277 530.725708008 L500.070831299 555.643310547 L482.742736816 582.947998047 L468.973480225 612.209228516 L458.980163574 642.965454102 L452.920471191 674.731628418 L450.889892578 707.006713867 L452.920471191 739.281921387 L457.57208252 763.666381836 L408.133087158 776.360168457 L424.564575195 826.931091309 L438.830444336 822.295837402 L427.334991455 786.916503906 L461.302429199 778.195129395 L468.973510742 801.804321289 L482.742797852 831.065490723 L496.044219971 852.025146484 L461.211273193 877.332763672 L420.680450439 906.780151367 L386.610992432 931.533081055 L364.207519531 896.230834961 L339.811218262 844.386230469 L326.238830566 850.772949219 L347.837249756 896.671875 L310.107116699 917.41418457 L259.632873535 945.162719727 L266.859191895 958.307250977 L311.161621094 933.951782227 L337.947540283 976.159667969 L369.81237793 1014.6776123 L332.958709717 1049.28552246 L343.226928711 1060.22009277 L380.080596924 1025.61218262 L421.999908447 1064.97705078 L454.535644531 1025.64794922 L495.968170166 1055.75048828 L523.318115234 1012.65374756 L556.098205566 1030.67480469 L597.865539551 1047.21166992 L641.376220703 1058.38330078 L678.488342285 1063.0715332 L675.784912109 1106.04248047 L673.140686035 1148.0715332 L625.417358398 1142.04284668 L564.268432617 1126.34240723 L549.078674316 1173.09179688 L491.092346191 1150.13330078 L485.570465088 1164.07995605 L544.434265137 1187.38574219 L531.129272461 1228.33435059 L513.330200195 1283.11413574 L527.596069336 1287.74938965 L543.218688965 1239.66784668 L603.82598877 1255.22924805 L673.36114502 1264.01342773 L735.933898926 1264.01342773 L738.637451172 1306.984375 L741.281677246 1349.01342773 L660.041625977 1349.01342773 L660.041625977 1364.01342773 L749.740234375 1364.01342773 L831.759094238 1353.65197754 L911.832214355 1333.09265137 L995.23223877 1300.0723877 L989.710388184 1286.12573242 L907.187805176 1318.79858398 L836.221557617 1337.01965332 L828.330505371 1295.65344238 L820.262573242 1253.36010742 L888.148193359 1235.93005371 L872.375244141 1187.38574219 L931.691650391 1163.90075684 L906.960021973 1111.34338379 L888.627685547 1072.38525391 L926.921081543 1051.33325195 L968.353637695 1021.23071289 L1000.20849609 991.316955566 L1031.59484863 1020.79071045 L1062.29333496 1049.6184082 L1017.16375732 1091.99804688 L1053.58740234 1136.02661133 L1090.61254883 1180.78222656 L1151.76855469 1123.3527832 L1195.66430664 1070.29187012 L1236.56494141 1100.0078125 L1245.3815918 1087.87255859 L1204.4810791 1058.15661621 L1245.14648438 994.07824707 L1232.48144531 986.040893555 L1188.29516602 1055.6673584 L1140.81237793 1113.06420898 L1091.98840332 1158.91308594 L1065.14501953 1126.46520996 L1037.70019531 1093.29003906 L1078.72753906 1054.76269531 L1124.18286133 999.816589355 L1071.12304688 961.266418457 L1062.30639648 973.401611328 L1102.44335938 1002.56292725 L1072.56152344 1038.68395996 L1041.86303711 1009.85620117 L1005.3425293 975.561157227 L963.687927246 936.444946289 L926.839111328 971.048339844 L898.103088379 991.926269531 L871.51953125 950.037353516 L858.854614258 958.074829102 L885.438171387 999.963745117 L854.312011719 1017.07543945 L821.286682129 1030.15112305 L806.096923828 983.401733398 L763.229553223 994.40826416 L718.867248535 1000.01257324 L720.747253418 1014.89428711 L758.590270996 1010.11352539 L766.65814209 1052.40673828 L776.045715332 1101.61828613 L785.433349609 1150.82971191 L793.324401855 1192.19604492 L731.450256348 1200.01257324 L733.33026123 1214.89428711 L811.051818848 1205.07568359 L800.167663574 1148.01904297 L792.099731445 1105.72583008 L841.232727051 1093.1105957 L837.502319336 1078.58178711 L789.283508301 1090.96240234 L781.392456055 1049.59606934 L773.324584961 1007.30285645 L796.183837891 1001.43359375 L811.956848145 1049.97790527 L860.711364746 1030.67468262 L900.076721191 1009.0333252 L936.419372559 982.62890625 L963.687988281 957.021972656 L989.252319336 981.028442383 L958.773376465 1009.65014648 L918.867797852 1038.64331055 L869.057800293 1066.02661133 L893.387573242 1117.73010254 L911.318115234 1155.83435059 L867.730834961 1173.0916748 L852.399841309 1125.90771484 L838.133972168 1130.54296875 L855.932983398 1185.32275391 L868.946289062 1225.3737793 L802.888793945 1242.33447266 L813.596191406 1298.46411133 L821.487243652 1339.83032227 L756.252075195 1348.0715332 L753.607849121 1306.04248047 L750.019836426 1249.01342773 L674.304870605 1249.01342773 L614.097839355 1241.40759277 L623.394165039 1192.67419434 L608.659851074 1189.86352539 L599.363525391 1238.59692383 L547.86315918 1225.3737793 L560.876464844 1185.32275391 L574.181518555 1144.37426758 L622.601074219 1156.80627441 L672.196960449 1163.0715332 L669.022583008 1213.52770996 L683.992980957 1214.46948242 L687.609619141 1156.984375 L690.755310059 1106.984375 L693.458740234 1064.01342773 L723.350891113 1064.01342773 L726.054382324 1106.984375 L729.671081543 1164.46960449 L744.641479492 1163.52770996 L741.024780273 1106.04248047 L737.436828613 1049.01342773 L686.887634277 1049.01342773 L644.192504883 1043.61987305 L609.788696289 1034.78637695 L624.978515625 988.037109375 L583.828613281 971.744689941 L551.630432129 954.043640137 L521.904663086 932.446655273 L489.308959961 901.837219238 L479.040740967 912.771728516 L506.846374512 938.88293457 L474.620849609 977.836914062 L486.178527832 987.39831543 L518.404052734 948.444274902 L543.577148438 966.733581543 L577.429260254 985.343933105 L606.359863281 996.798339844 L595.522888184 1030.15112305 L562.497558594 1017.07550049 L518.200805664 992.723205566 L491.862213135 1034.22631836 L458.0362854 1009.65032959 L416.267944336 970.427246094 L405.999725342 981.361816406 L442.977935791 1016.08666992 L420.62399292 1043.10791016 L385.558685303 1010.17944336 L350.106781006 967.325439453 L324.332214355 926.711181641 L355.063568115 909.816467285 L382.5050354 953.057250977 L423.799346924 923.055175781 L452.123443604 957.293151855 L463.681152344 947.731811523 L435.958587646 914.220947266 L470.028045654 889.468017578 L504.860992432 864.160400391 L520.684509277 883.287780762 L544.258666992 905.425354004 L570.421447754 924.43371582 L598.760314941 940.013122559 L628.828369141 951.917907715 L660.151367188 959.960266113 L684.779785156 963.071533203 L682.577758789 998.071533203 L645.671020508 993.409179688 L643.79107666 1008.29089355 L696.545227051 1014.95526123 L699.750183105 964.013427734 L724.57421875 964.013427734 L756.658203125 959.960266113 L787.981201172 951.91784668 L811.062133789 942.77947998 L832.587768555 988.523803711 L846.160217285 982.137145996 L824.634521484 936.392822266 L846.388122559 924.433654785 L872.55090332 905.425292969 L896.125 883.287658691 L916.738647461 858.370056152 L934.066772461 831.065307617 L944.636352539 808.603759766 L984.668701172 824.453674316 L1023.8236084 839.956176758 L1005.30584717 879.30847168 L1018.8782959 885.695129395 L1037.79785156 845.488952637 L1085.25610352 864.278930664 L1105.72619629 801.278137207 L1042.20117188 784.967651367 L1038.4708252 799.496398926 L1086.52429199 811.834472656 L1075.92626953 844.452087402 L1036.77124023 828.949584961 L990.190551758 810.507019043 L950.158203125 794.657104492 L957.829284668 771.047912598 L962.480834961 746.663574219 L997.27355957 751.058898926 L990.302978516 787.599914551 L1005.03723145 790.410644531 L1013.59277344 745.560913086 L1015.54656982 714.506713867 L1066.58911133 714.506713867 L1063.29663086 662.173461914 L1056.28723145 625.428894043 L1105.72619629 612.735107422 L1089.90039062 564.028320312 L1136.90600586 545.417480469 L1131.38427734 531.470825195 L1084.37854004 550.081665039 L1062.78015137 504.182800293 L1049.20776367 510.569519043 L1073.60400391 562.4140625 L1086.52429199 602.178771973 L1052.55688477 610.900146484 L1040.99743652 575.323913574 L1021.87060547 534.677368164 L1001.8269043 503.093505859 L1036.65991211 477.785888672 L1070.72924805 453.032958984 L1100.53063965 499.992340088 L1150.60449219 472.464050293 L1187.50756836 452.176391602 L1213.34619141 507.086242676 L1234.42114258 571.948547363 L1247.20068359 638.940856934 L1251.01123047 699.506713867 L1208.89916992 699.506713867 L1151.30029297 699.506713867 L1151.30029297 714.506713867 L1200.91235352 714.506713867 L1197.49682617 768.793457031 L1185.8963623 829.60559082 L1164.30200195 896.066040039 L1178.56787109 900.701293945 L1200.45385742 833.343261719 L1210.99987793 778.058898926 L1253.71630859 783.45526123 L1295.49633789 788.733337402 L1281.53808594 861.905395508 L1344.14904785 877.981201172 L1347.87939453 863.452392578 L1298.91186523 850.879699707 L1311.81567383 783.235351562 L1316.61169434 707.006713867 L1311.37426758 623.76373291 L1296.40393066 624.705627441 L1301.58203125 707.006713867 L1297.37634277 773.851623535 L1255.59619141 768.573547363 L1212.87988281 763.177185059 L1215.94213867 714.506713867 L1266.98461914 714.506713867 L1262.11181641 637.057128906 L1250.38684082 575.592529297 L1292.09008789 564.885009766 L1340.61499023 552.42590332 L1381.40405273 541.953063965 L1396.31201172 620.103515625 L1401.77978516 707.006713867 L1396.78393555 786.409851074 L1361.99121094 782.014465332 L1366.71057129 707.006713867 L1361.078125 617.484619141 L1346.10766602 618.426513672 L1351.6809082 707.006713867 L1346.13647461 795.130737305 L1394.90393066 801.291564941 L1379.99597168 879.441833496 L1353.08850098 962.254699707 L1319.21362305 1034.24267578 L1288.48217773 1017.34802246 L1323.68164062 942.545288086 L1269.67504883 921.162597656 L1229.6427002 905.312683105 L1251.15063477 839.118225098 L1236.88476562 834.482971191 L1213.34619141 906.926940918 L1187.50769043 961.836853027 L1150.60449219 941.549194336 L1112.87426758 920.806884766 L1134.15893555 875.574523926 L1151.92895508 820.884216309 L1164.11230469 757.016357422 L1113.47229004 750.619018555 L1116.21618652 707.006713867 L1113.47229004 663.39440918 L1164.11230469 656.997009277 L1153.33703613 600.510681152 L1187.30444336 591.789306641 L1198.99072266 653.050598145 L1213.72497559 650.239868164 L1200.45385742 580.669921875 L1178.56787109 513.311889648 L1164.30200195 517.947143555 L1183.57409668 577.260620117 L1135.96325684 589.484985352 L1146.38500977 644.11730957 L1097.61743164 650.278076172 L1101.18652344 707.006713867 L1098.56115723 748.735290527 L1049.34020996 742.517211914 L1047.46020508 757.398925781 L1104.6048584 764.618041992 L1146.38500977 769.896057129 L1137.37145996 817.146484375 L1120.18481445 870.041748047 L1099.70373535 913.56628418 L1056.62866211 889.885620117 L1030.19848633 931.532958984 L996.129089355 906.780029297 L961.296142578 881.472412109 L981.734619141 849.266540527 L969.069702148 841.229125977 L945.110229492 878.983215332 L921.68939209 907.294189453 L889.09362793 937.903686523 L899.361877441 948.838195801 L932.645507812 917.582702637 L952.479370117 893.607666016 L987.312316895 918.915283203 L1034.30444336 953.057128906 L1061.74609375 909.816162109 L1099.47619629 930.55847168 L1143.37817383 954.693786621 L1180.28137207 974.981445312 L1147.7644043 1026.2199707 L1099.21044922 1084.91162109 L1110.76818848 1094.47302246 L1159.92358398 1035.05419922 L1197.4786377 975.877075195 L1224.12084961 919.259338379 L1264.15319824 935.10925293 L1303.30810547 950.611755371 L1268.91235352 1023.70666504 L1311.98730469 1047.3873291 L1269.35681152 1114.56213379 L1213.85339355 1181.65429688 L1150.37878418 1241.26098633 L1086.01342773 1288.02526855 L1067.22241211 1258.4152832 L1128.02478027 1214.23974609 L1193.41235352 1152.83666992 L1183.14416504 1141.90209961 L1118.44458008 1202.65917969 L1059.16906738 1245.7253418 L1032.83044434 1204.22241211 L967.552612305 1240.10925293 L952.620849609 1208.37768555 L1014.03936768 1174.61254883 L982.915527344 1125.56933594 L959.845031738 1089.21594238 L1005.97375488 1055.70141602 L997.156982422 1043.56616211 L939.632446289 1085.36022949 L970.250610352 1133.60668945 L992.815490723 1169.16320801 L933.050964355 1202.01904297 L953.980163574 1246.49584961 L884.294372559 1274.08642578 L889.816223145 1288.03295898 L967.366577148 1257.32885742 L1027.71313477 1224.1529541 L1050.78369141 1260.50610352 L1073.34851074 1296.06274414 L1003.62939453 1334.39111328 L922.669189453 1366.44543457 L838.330444336 1388.10009766 L751.942260742 1399.01342773 L664.867797852 1399.01342773 L578.479553223 1388.10021973 L494.140197754 1366.44555664 L413.180084229 1334.39111328 L336.876068115 1292.44262695 L266.431213379 1241.26147461 L208.434204102 1186.79882812 L244.26675415 1153.14978027 L192.773620605 1090.90515137 L232.910705566 1061.74389648 L224.093933105 1049.60864258 L183.956848145 1078.76989746 L144.697814941 1016.90753174 L110.301757812 943.81262207 L87.6606445312 874.129882812 L128.449768066 863.657043457 L176.97467041 851.197998047 L232.763946533 836.873779297 L229.033599854 822.345031738 L173.24432373 836.669250488 L132.455200195 847.142089844 L119.905029297 781.351806641 L115.699279785 714.507019043 L164.854431152 714.506958008 L170.10925293 630.984802246 L155.13885498 630.042907715 L150.768493652 699.506958008 L107.712585449 699.507019043 L50.1137084961 699.507080078 L50.1137084961 714.507080078 L100.669616699 714.507019043 L104.993896484 783.235534668 L117.897705078 850.879760742 L68.4587402344 863.573486328 L96.3275146484 949.345397949 L131.527282715 1024.14819336 L175.82421875 1093.94909668 L223.730377197 1151.85766602 L198.166015625 1175.86425781 L147.452697754 1114.56225586 L100.795898438 1041.04284668 L63.7210083008 962.255249023 L34.3500976562 871.860168457 L20.0842285156 876.495361328 L49.7467651367 967.787963867 L87.6253662109 1048.28344727 L135.293395996 1123.39648438 L192.0 1191.94299316 L256.850952148 1252.84204102 L328.822784424 1305.13256836 L406.780731201 1347.99047852 L489.495788574 1380.73950195 L575.663330078 1402.86364746 L663.924072266 1414.01342773 L752.885986328 1414.01342773 L841.146728516 1402.86352539 L927.313598633 1380.73950195 L1010.02868652 1347.99047852 L1087.98706055 1305.13232422 L1159.95898438 1252.84155273 L1224.80957031 1191.94287109 L1281.51611328 1123.3963623 L1329.18457031 1048.28295898 L1367.06274414 967.787475586 L1394.5534668 883.17956543 L1411.22314453 795.793579102 L1416.80944824 707.006713867 L1411.22314453 618.219787598 L1394.5534668 530.833618164 L1367.06274414 446.22567749 L1329.18444824 365.730224609 L1281.51611328 290.616790771 L1224.80932617 222.0703125 L1159.95874023 161.171569824 L1087.98693848 108.880981445 L1010.02868652 66.0230102539 L927.313659668 33.2739257812 L841.146484375 11.1498413086 L752.885681152 0.0 L663.923461914 0.0 L575.662719727 11.1499633789 L489.495819092 33.2739257812 L406.780792236 66.0230102539 L328.822631836 108.880981445 L256.850463867 161.171630859 L191.99987793 222.070556641 L135.293395996 290.616882324 L87.625 365.730255127 L49.7467041016 446.225799561 L22.2560424805 530.833679199 L5.58618164062 618.219848633 L0.0 707.007080078 L6.05816650391 803.293823242 L71.1265258789 795.073669434 L69.2465209961 780.191955566 L20.0255737305 786.410095215 L15.0296630859 707.007080078 L20.0254516602 627.603637695 L61.8055419922 632.881713867 L118.496765137 640.043518066 L133.863342285 559.489562988 L154.560241699 495.790771484 L193.715148926 511.293273926 L240.295928955 529.735900879 L280.328277588 545.58581543 L262.708740234 599.813232422 L276.974609375 604.448486328 L296.624725342 543.971557617 L317.105804443 500.447021484 L354.008972168 520.734680176 L397.910949707 544.869995117 L435.641143799 565.612304688 L422.392730713 593.766601562 L410.45526123 630.506347656 L404.624786377 661.070861816 L353.984680176 654.673522949 L350.250854492 714.021057129 L365.221252441 714.962890625 L367.952087402 671.557250977 L402.744781494 675.952575684 L400.791015625 707.006774902 L402.744812012 738.060974121 L360.028442383 743.457336426 L302.883789062 750.676391602 L304.763793945 765.558105469 L354.921020508 759.221740723 L360.522247314 788.584533691 L318.819030762 799.292114258 L278.029907227 809.764953613 L267.608276367 755.132751465 L218.840759277 761.293579102 L215.425170898 707.006896973 L218.840637207 652.720031738 L260.620727539 657.99810791 L303.337127686 663.394470215 L301.065124512 699.506774902 L250.509216309 699.506835938 L250.509216309 714.506835938 L315.151062012 714.506774902 L318.720123291 657.778198242 L327.96295166 609.325927734 L340.883270264 569.561157227 L373.489776611 582.471008301 L359.758544922 624.731445312 L374.024414062 629.366699219 L392.108428955 573.709716797 L331.553436279 549.734375 L313.405456543 605.588195801 L305.217132568 648.512695312 L262.500732422 643.116394043 L220.72064209 637.838256836 L232.321289062 577.026000977 L169.710327148 560.950256348 L165.979919434 575.479003906 L214.947509766 588.051757812 L204.401367188 643.336303711 L200.395507812 707.006896973 L203.929595947 763.177307129 L153.772399902 769.51373291 L155.652404785 784.395446777 L212.797058105 777.176330566 L255.513427734 771.779907227 L264.880554199 820.884399414 L280.328308105 868.427856445 L240.295959473 884.277770996 L186.289367676 905.660522461 L216.131408691 969.077819824 L185.400085449 985.97253418 L153.488220215 918.156799316 L139.91583252 924.543518066 L178.628845215 1006.81237793 L223.357727051 982.222412109 L256.885894775 1035.05432129 L301.56149292 1089.0579834 L358.131561279 1142.18078613 L390.667297363 1102.85180664 L430.120361328 1131.51599121 L402.770385742 1174.6126709 L464.188690186 1208.37768555 L445.856384277 1247.33581543 L427.925872803 1285.44006348 L363.720367432 1250.1427002 L304.445007324 1207.07678223 L326.798950195 1180.05541992 L388.197265625 1224.66381836 L397.014038086 1212.52856445 L330.299560547 1164.05786133 L270.185913086 1107.60742188 L259.917694092 1118.54187012 L315.241241455 1170.49414062 L282.705505371 1209.82324219 L355.66708374 1262.8326416 L428.111816406 1302.65966797 L504.977172852 1333.09277344 L592.329589844 1355.52099609 L601.893981934 1305.38256836 L677.188171387 1314.89428711 L679.06817627 1300.01257324 L589.799133301 1288.73535156 L580.588378906 1337.01977539 L509.621582031 1318.79858398 L441.498260498 1291.82678223 L459.428771973 1253.72253418 L483.758605957 1202.01904297 L423.994262695 1169.16333008 L446.559082031 1133.60681152 L469.629577637 1097.25341797 L520.02142334 1124.95666504 L541.754272461 1078.77197266 L582.384155273 1094.85839844 L638.795959473 1109.3425293 L642.526367188 1094.81384277 L587.028564453 1080.56445312 L534.179382324 1059.63989258 L513.25012207 1104.11682129 L464.512268066 1077.32299805 L438.17364502 1118.8260498 L388.088256836 1082.43701172 L356.755645752 1120.31176758 L312.517669678 1078.76940918 L273.835266113 1032.01037598 L313.972351074 1002.84912109 L305.155578613 990.713867188 L265.018493652 1019.87512207 L232.501678467 968.63684082 L206.662902832 913.726928711 L245.817810059 898.22442627 L298.946960449 877.189086914 L281.760253906 824.293701172 L322.549377441 813.820861816 L364.252593994 803.11328125 L375.812011719 838.689575195 L398.138549805 886.135742188 L455.611572266 854.539672852 L448.385253906 841.395019531 L404.909790039 865.295898438 L389.786254883 833.156799316 L376.487884521 792.228515625 L369.83215332 757.338012695 L418.59967041 751.177246094 L415.820678711 707.006713867 L418.1277771 670.336303711 L425.012756348 634.24407959 L436.366973877 599.299377441 L452.011383057 566.053344727 L471.69921875 535.030151367 L499.91027832 500.928894043 L452.788391113 456.678527832 L442.520172119 467.613037109 L479.373840332 502.220947266 L459.539978027 526.195922852 L442.867431641 552.467773438 L405.137268066 531.725402832 L361.235290527 507.590087891 L310.334503174 479.607177734 L285.850158691 531.639160156 L245.817779541 515.789245605 L199.237030029 497.346618652 L145.230407715 475.963928223 L119.305847168 555.751831055 L106.401916504 623.396362305 L63.685546875 618.0 L21.905456543 612.721923828 L36.8135375977 534.571411133 L63.7209472656 451.758544922 L100.795532227 372.970855713 L147.452697754 299.45111084 L202.956054688 232.359069824 L266.430725098 172.752197266 L330.796295166 125.988037109 L353.361114502 161.544494629 L383.979217529 209.790924072 L449.256896973 173.904174805 L467.18737793 212.008392334 L488.518432617 257.339202881 L509.849487305 302.670013428 L528.18182373 341.628204346 L496.473724365 359.059875488 L469.123748779 315.963195801 L422.601257324 349.76373291 L390.375701904 310.809692383 L378.817993164 320.371063232 L411.043579102 359.325073242 L380.080535889 388.401367188 L348.694122314 358.927612305 L312.173614502 324.632598877 L275.653106689 290.337554932 L244.954650879 261.509796143 L292.886901855 216.498260498 L319.730224609 248.946228027 L356.153808594 292.974761963 L411.329193115 252.88760376 L437.912719727 294.776550293 L450.577636719 286.739135742 L415.435150146 231.363433838 L358.732788086 272.560028076 L331.287902832 239.384887695 L294.262756348 194.629211426 L223.042358398 261.509796143 L265.384918213 301.272064209 L301.905426025 335.567108154 L338.425933838 369.862121582 L380.080535889 408.978393555 L426.101898193 365.761383057 L465.017791748 337.487365723 L491.356414795 378.99041748 L534.581115723 355.22744751 L552.51159668 393.331665039 L577.036010742 445.448699951 L590.608398438 439.062011719 L566.083984375 386.945007324 L544.752929688 341.614196777 L523.421936035 296.283355713 L502.090881348 250.952545166 L480.75982666 205.621734619 L456.028198242 153.064331055 L389.0965271 189.860412598 L366.026031494 153.507141113 L343.461212158 117.950622559 L413.180084229 79.622253418 L494.140228271 47.5679931641 L578.479003906 25.9133911133 L664.8671875 15.0 L744.427124023 15.0 L741.311950684 64.5142822266 L756.282348633 65.4561157227 L759.397521973 15.9418334961 L838.330200195 25.913269043 L922.669250488 47.5679931641 L996.642272949 76.8558959961 L981.710571289 108.587463379 L904.845153809 78.1544189453 L886.895751953 133.397033691 L873.590759277 174.34564209 L806.176330566 157.036437988 L802.445983887 171.565185547 L876.225097656 190.508544922 L932.649108887 212.848266602 L914.71862793 250.952514648 L893.387573242 296.283325195 L875.055236816 335.241485596 L841.412475586 321.921386719 L854.717407227 280.97277832 L872.516418457 226.192993164 L858.250610352 221.557739258 L840.451599121 276.337524414 L824.970214844 323.984405518 L811.665222168 364.932983398 L782.712097168 357.49911499 L792.185302734 307.838653564 L777.45098877 305.027923584 L767.977783203 354.68838501 L723.41003418 349.058166504 L720.205078125 400.000030518 L696.604309082 400.000030518 L693.900817871 357.02911377 L690.755065918 307.029083252 L687.609313965 257.029052734 L684.463500977 207.029052734 L680.81628418 149.058105469 L611.28112793 157.842529297 L601.807861328 108.182128906 L587.073608398 110.992858887 L599.186279297 174.489746094 L666.848876953 165.941894531 L669.493103027 207.970947266 L672.638916016 257.970947266 L675.784667969 307.970916748 L678.48815918 350.941894531 L634.403320312 356.511138916 L636.283325195 371.392852783 L679.431884766 365.941894531 L682.518371582 415.000030518 L734.291015625 415.000030518 L737.377502441 365.941894531 L772.61706543 370.393676758 L807.020812988 379.227050781 L791.689819336 426.41104126 L805.955688477 431.046295166 L823.754638672 376.26651001 L836.768005371 336.215454102 L882.630187988 354.373504639 L906.959960938 302.66998291 L928.291015625 257.339172363 L946.221496582 219.234954834 L1006.38641357 252.310974121 L1013.61273193 239.166381836 L946.035522461 202.015411377 L887.856567383 178.980895996 L901.161560059 138.032287598 L914.174926758 97.9812011719 L989.285400391 127.719421387 L1010.21466064 83.2425537109 L1079.93359375 121.570922852 L1150.37854004 172.75213623 L1213.85327148 232.358825684 L1269.35668945 299.451019287 L1316.01391602 372.970825195 L1353.08837891 451.758422852 L1377.67370605 527.424316406 L1336.88452148 537.897216797 L1288.35961914 550.356262207 L1246.65649414 561.063842773 L1227.32043457 501.553466797 L1194.27893066 431.336547852 L1143.37817383 459.319458008 L1105.64794922 480.061798096 L1078.86193848 437.853759766 L1046.99707031 399.335845947 L1083.85070801 364.727935791 L1073.58251953 353.793395996 L1026.46057129 398.043792725 L1061.91259766 440.897705078 L1027.84301758 465.650634766 L993.010131836 490.958251953 L964.375793457 456.345336914 L916.565979004 501.241729736 L926.834228516 512.176269531 L962.99987793 478.214385986 L985.640991211 505.582763672 L1008.70007324 541.91796875 L1023.82354736 574.057067871 L977.6953125 592.320556641 L983.217163086 606.267211914 L1029.34545898 588.003723145 L1040.3215332 621.784912109 L1048.38549805 664.057189941 L1050.61572266 699.506713867 L1001.46063232 699.506713867 L999.153564453 736.177185059 L964.360839844 731.781860352 L966.360839844 699.992431641 L951.390441895 699.050598145 L948.977844238 737.398132324 L943.271850586 767.310180664 L933.861816406 796.271362305 L920.896118164 823.824768066 L904.579406738 849.535888672 L885.168884277 872.999145508 L862.97064209 893.844726562 L838.334838867 911.743713379 L811.649902344 926.413879395 L783.336791992 937.623779297 L753.841918945 945.196838379 L723.630493164 949.013427734 L693.179077148 949.013427734 L662.967651367 945.196838379 L633.47277832 937.623840332 L605.159606934 926.413879395 L578.474731445 911.743774414 L553.838867188 893.844787598 L531.640686035 872.999267578 L512.230102539 849.535949707 L495.913391113 823.824890137 L482.947753906 796.271484375 L473.537658691 767.31036377 L467.831604004 737.398193359 L465.919555664 707.006713867 L467.831604004 676.61529541 L473.537658691 646.703125 L482.947692871 617.742004395 L495.913330078 590.188598633 L512.230102539 564.477539062 L531.640625 541.014221191 L553.838806152 520.168701172 L578.474609375 502.269714355 L605.159545898 487.59954834 L633.47265625 476.38961792 L662.967529297 468.816589355 L693.178955078 465.0 L723.630432129 465.0 L753.841918945 468.816589355 L783.336730957 476.389587402 L811.649841309 487.59954834 L838.334777832 502.269714355 L862.970581055 520.168640137 L885.168823242 541.014160156 L904.579345703 564.477539062 L920.896118164 590.188598633 L933.861755371 617.741943359 L943.271789551 646.703125 L950.385986328 683.997009277 L1015.00097656 675.834228516 L1005.03723145 623.602661133 L990.30291748 626.413330078 L997.27355957 662.954467773  Z" stroke="#FFEA00" stroke-width="0.30%" fill="none"/>
	</g>
</svg>
